<?xml version="1.0" encoding="utf-8"?>
<!-- Generator: Adobe Illustrator 22.0.1, SVG Export Plug-In . SVG Version: 6.00 Build 0)  -->
<svg version="1.1" id="Layer_1" xmlns="http://www.w3.org/2000/svg" xmlns:xlink="http://www.w3.org/1999/xlink" x="0px" y="0px"
	 viewBox="0 0 64 64"  style="enable-background:new 0 0 64 64;" xml:space="preserve">
<style type="text/css">
	.st0{fill:#191919;}
</style>
<g>
	<path class="st0" d="M63.6,25.3c-1.2-5.4-4.9-9.5-10.2-11.1c-2.9-0.9-6-1-9.2-0.4c-0.2-0.1-0.5-0.1-0.7-0.2c-1.9-0.4-5.2-0.4-9,2.8
		c0,0,0,0,0-0.1c-0.2-1.8-0.3-3.5-0.3-5.3c0-0.2,0-0.4,0-0.5c0.8,0.1,1.5,0.2,2.3,0.3c1.5,0.3,3,0.7,4.5,1.4V5.2
		c-1.5,0.7-3,1.1-4.5,1.4c-0.7,0.1-1.5,0.2-2.2,0.3c0-0.4,0.1-0.8,0.1-1.2c0.2-1.8,0.5-3.5,1.1-5.3h-6.9c0.6,1.8,0.9,3.5,1.1,5.3
		c0,0.4,0.1,0.8,0.1,1.2c-0.7-0.1-1.5-0.2-2.2-0.3C26,6.3,24.5,6,23,5.2v6.9c1.5-0.7,3-1.1,4.5-1.4c0.8-0.1,1.5-0.2,2.3-0.3
		c0,0.2,0,0.3,0,0.5c0,1.8-0.1,3.5-0.3,5.3c0,0,0,0,0,0.1c-3.8-3.2-7.1-3.2-9-2.8c-0.2,0.1-0.5,0.1-0.7,0.2
		c-3.2-0.6-6.3-0.5-9.2,0.4c-5.2,1.6-9,5.7-10.2,11.1c-2.1,9.2,5.5,22,9,27.2v5h45.3v-5C58.1,47.3,65.7,34.5,63.6,25.3z M14.8,51.1
		c-3.5-4.9-10.9-17.2-9.3-24.6c0.8-3.5,3.2-6.2,6.6-7.2c0.6-0.2,1.3-0.3,1.9-0.4c-1,1.9-1.7,4.1-2.1,6.7c-1.1,8.4,3.1,19.9,5.4,25.6
		H14.8z M29.3,51.1h-6.1c-1.6-3.7-7.1-16.6-6-24.8c0.4-3.2,1.6-5.6,3.1-6.8c3,0.9,6.1,2.6,9,5.2V51.1z M34.6,51.1V24.6
		c2.9-2.5,6-4.2,9-5.2c1.5,1.2,2.6,3.6,3.1,6.8c1.1,8.3-4.3,21.2-6,24.8H34.6z M49.2,51.1h-2.6c2.4-5.6,6.6-17.2,5.4-25.6
		c-0.4-2.6-1.1-4.9-2.1-6.7c0.7,0.1,1.3,0.2,1.9,0.4c3.4,1.1,5.8,3.7,6.6,7.2C60.1,33.8,52.6,46.2,49.2,51.1z"/>
	<rect x="9.3" y="59.4" class="st0" width="45.3" height="4.6"/>
</g>
</svg>
